<svg width="17" height="17" viewBox="0 0 17 17" fill="none" xmlns="http://www.w3.org/2000/svg">
<g clip-path="url(#clip0_1001_1178)">
<path d="M5.34803 15.4068C11.7615 15.4068 15.2704 10.0919 15.2704 5.48434C15.2704 5.33492 15.2671 5.18219 15.2605 5.03277C15.9431 4.53914 16.5321 3.9277 17 3.22719C16.3643 3.51003 15.6893 3.69475 14.9982 3.77504C15.7259 3.33883 16.2708 2.65356 16.5318 1.84627C15.8472 2.252 15.0985 2.5382 14.3179 2.69262C13.7918 2.13371 13.0964 1.76364 12.3389 1.63964C11.5815 1.51563 10.8043 1.6446 10.1276 2.00659C9.45079 2.36858 8.91211 2.94344 8.59481 3.64228C8.27751 4.34113 8.19926 5.12504 8.37217 5.87281C6.98593 5.80325 5.62979 5.44314 4.39165 4.81584C3.15352 4.18853 2.06103 3.30804 1.18502 2.23143C0.739783 2.99907 0.60354 3.90743 0.80398 4.77192C1.00442 5.6364 1.5265 6.39213 2.26412 6.88551C1.71036 6.86793 1.16873 6.71883 0.683984 6.45055V6.49371C0.683488 7.29929 0.961986 8.08018 1.47214 8.70365C1.98229 9.32711 2.6926 9.75467 3.48234 9.91363C2.96937 10.054 2.43099 10.0744 1.90885 9.9734C2.1317 10.6662 2.56528 11.2721 3.14909 11.7067C3.73289 12.1412 4.43779 12.3826 5.16541 12.3972C3.93013 13.3676 2.40421 13.8939 0.833398 13.8914C0.554828 13.8909 0.276533 13.8739 0 13.8402C1.59577 14.864 3.45208 15.4077 5.34803 15.4068Z" fill="#2F4797"/>
</g>
<defs>
<clipPath id="clip0_1001_1178">
<rect width="17" height="17" fill="white"/>
</clipPath>
</defs>
</svg>
