<svg width="17" height="17" viewBox="0 0 17 17" fill="none" xmlns="http://www.w3.org/2000/svg">
<path d="M16.8307 5.10039C16.8307 5.10039 16.6646 3.92832 16.1533 3.41367C15.5059 2.73633 14.782 2.73301 14.45 2.69316C12.0727 2.52051 8.50332 2.52051 8.50332 2.52051H8.49668C8.49668 2.52051 4.92734 2.52051 2.55 2.69316C2.21797 2.73301 1.49414 2.73633 0.84668 3.41367C0.335352 3.92832 0.172656 5.10039 0.172656 5.10039C0.172656 5.10039 0 6.47832 0 7.85293V9.14121C0 10.5158 0.169336 11.8938 0.169336 11.8938C0.169336 11.8938 0.335352 13.0658 0.843359 13.5805C1.49082 14.2578 2.34082 14.2346 2.71934 14.3076C4.08066 14.4371 8.5 14.477 8.5 14.477C8.5 14.477 12.0727 14.4703 14.45 14.301C14.782 14.2611 15.5059 14.2578 16.1533 13.5805C16.6646 13.0658 16.8307 11.8938 16.8307 11.8938C16.8307 11.8938 17 10.5191 17 9.14121V7.85293C17 6.47832 16.8307 5.10039 16.8307 5.10039ZM6.74356 10.7051V5.92715L11.3355 8.32441L6.74356 10.7051Z" fill="#2F4797"/>
</svg>
