<svg width="100" height="182" viewBox="0 0 100 182" fill="none" xmlns="http://www.w3.org/2000/svg">
<path d="M0.967896 48.9157C0.967896 21.9003 22.9598 0 50.0882 0C77.2167 0 99.2086 21.9003 99.2086 48.9157V180.723H0.967896V48.9157Z" fill="url(#paint0_linear_1091_589)"/>
<path d="M24.9231 55.5421C24.9231 41.7683 36.1358 30.6023 49.9672 30.6023C63.7986 30.6023 75.0113 41.7683 75.0113 55.5421V180.723H24.9231V55.5421Z" fill="url(#paint1_linear_1091_589)"/>
<g filter="url(#filter0_d_1091_589)">
<path d="M50.0909 67.7997C55.7051 67.7997 60.2564 63.2674 60.2564 57.6766C60.2564 52.0857 55.7051 47.5535 50.0909 47.5535C44.4767 47.5535 39.9254 52.0857 39.9254 57.6766C39.9254 63.2674 44.4767 67.7997 50.0909 67.7997Z" fill="url(#paint2_linear_1091_589)"/>
</g>
<g filter="url(#filter1_i_1091_589)">
<path d="M99.2343 110.961H60.306V180.724H99.2343V110.961Z" fill="url(#paint3_linear_1091_589)"/>
<path d="M60.306 129.01H39.975V180.724H60.306V129.01Z" fill="url(#paint4_linear_1091_589)"/>
<path d="M39.9752 147.53H19.6442V180.724H39.9752V147.53Z" fill="url(#paint5_linear_1091_589)"/>
<path d="M19.644 158.281H0.967896V180.725H19.644V158.281Z" fill="url(#paint6_linear_1091_589)"/>
</g>
<defs>
<filter id="filter0_d_1091_589" x="35.9254" y="43.5535" width="28.3309" height="28.2463" filterUnits="userSpaceOnUse" color-interpolation-filters="sRGB">
<feFlood flood-opacity="0" result="BackgroundImageFix"/>
<feColorMatrix in="SourceAlpha" type="matrix" values="0 0 0 0 0 0 0 0 0 0 0 0 0 0 0 0 0 0 127 0" result="hardAlpha"/>
<feOffset/>
<feGaussianBlur stdDeviation="2"/>
<feColorMatrix type="matrix" values="0 0 0 0 0 0 0 0 0 0 0 0 0 0 0 0 0 0 0.25 0"/>
<feBlend mode="normal" in2="BackgroundImageFix" result="effect1_dropShadow_1091_589"/>
<feBlend mode="normal" in="SourceGraphic" in2="effect1_dropShadow_1091_589" result="shape"/>
</filter>
<filter id="filter1_i_1091_589" x="0.967896" y="109.961" width="98.2664" height="70.7639" filterUnits="userSpaceOnUse" color-interpolation-filters="sRGB">
<feFlood flood-opacity="0" result="BackgroundImageFix"/>
<feBlend mode="normal" in="SourceGraphic" in2="BackgroundImageFix" result="shape"/>
<feColorMatrix in="SourceAlpha" type="matrix" values="0 0 0 0 0 0 0 0 0 0 0 0 0 0 0 0 0 0 127 0" result="hardAlpha"/>
<feOffset dy="-1"/>
<feGaussianBlur stdDeviation="2"/>
<feComposite in2="hardAlpha" operator="arithmetic" k2="-1" k3="1"/>
<feColorMatrix type="matrix" values="0 0 0 0 0 0 0 0 0 0 0 0 0 0 0 0 0 0 0.25 0"/>
<feBlend mode="normal" in2="shape" result="effect1_innerShadow_1091_589"/>
</filter>
<linearGradient id="paint0_linear_1091_589" x1="50.0882" y1="0" x2="50.0882" y2="180.723" gradientUnits="userSpaceOnUse">
<stop stop-color="#1748B1"/>
<stop offset="0.455602" stop-color="#9D7A86"/>
<stop offset="0.643711" stop-color="#FFA13D"/>
<stop offset="0.770097" stop-color="#FE6071"/>
</linearGradient>
<linearGradient id="paint1_linear_1091_589" x1="49.9672" y1="30.6023" x2="49.9672" y2="180.723" gradientUnits="userSpaceOnUse">
<stop stop-color="#9E8BAA"/>
<stop offset="1" stop-color="#1C2B80"/>
</linearGradient>
<linearGradient id="paint2_linear_1091_589" x1="50.0909" y1="47.5535" x2="50.0909" y2="67.7997" gradientUnits="userSpaceOnUse">
<stop stop-color="#9F84A8"/>
<stop offset="1" stop-color="#A990D1"/>
</linearGradient>
<linearGradient id="paint3_linear_1091_589" x1="60.2511" y1="145.783" x2="99.2086" y2="145.783" gradientUnits="userSpaceOnUse">
<stop stop-color="#815F47"/>
<stop offset="1" stop-color="#213F9F"/>
</linearGradient>
<linearGradient id="paint4_linear_1091_589" x1="39.9254" y1="154.94" x2="60.251" y2="154.94" gradientUnits="userSpaceOnUse">
<stop stop-color="#A36604"/>
<stop offset="1" stop-color="#7E5E4C"/>
</linearGradient>
<linearGradient id="paint5_linear_1091_589" x1="19.5997" y1="164.096" x2="39.9254" y2="164.096" gradientUnits="userSpaceOnUse">
<stop stop-color="#EB7700"/>
<stop offset="1" stop-color="#9F6504"/>
</linearGradient>
<linearGradient id="paint6_linear_1091_589" x1="0.967896" y1="169.398" x2="19.5997" y2="169.398" gradientUnits="userSpaceOnUse">
<stop stop-color="#FF7E00"/>
<stop offset="1" stop-color="#E77600"/>
</linearGradient>
</defs>
</svg>
